<?xml version="1.0" encoding="UTF-8" standalone="no"?>
<!DOCTYPE svg PUBLIC "-//W3C//DTD SVG 1.1//EN"
 "http://www.w3.org/Graphics/SVG/1.1/DTD/svg11.dtd">
<!-- Generated by graphviz version 2.43.0 (0)
 -->
<!-- Title: Infrastructure Pages: 1 -->
<svg width="4533pt" height="2102pt"
 viewBox="0.00 0.00 1088.00 504.50" xmlns="http://www.w3.org/2000/svg" xmlns:xlink="http://www.w3.org/1999/xlink">
<g id="graph0" class="graph" transform="scale(4.17 4.17) rotate(0) translate(4 500.5)">
<title>Infrastructure</title>
<polygon fill="white" stroke="transparent" points="-4,4 -4,-500.5 1084,-500.5 1084,4 -4,4"/>
<text text-anchor="middle" x="540" y="-9.2" font-family="Helvetica,sans-Serif" font-size="16.00">Архитектура тестового стенда</text>
<g id="clust1" class="cluster">
<title>cluster_vapak</title>
<polygon fill="#16213e" stroke="black" points="8,-129 8,-376.5 371,-376.5 371,-129 8,-129"/>
<text text-anchor="middle" x="189.5" y="-359.7" font-family="Helvetica,sans-Serif" font-size="16.00" fill="white">ПАК ВАПАК (DRBD 9.2)</text>
</g>
<g id="clust2" class="cluster">
<title>cluster_tssd</title>
<polygon fill="#16213e" stroke="black" points="398,-34 398,-376.5 836,-376.5 836,-34 398,-34"/>
<text text-anchor="middle" x="617" y="-359.7" font-family="Helvetica,sans-Serif" font-size="16.00" fill="white">ЦКС TSSD (Ceph RBD)</text>
</g>
<g id="clust3" class="cluster">
<title>cluster_microstand</title>
<polygon fill="#16213e" stroke="black" points="844,-129 844,-376.5 1072,-376.5 1072,-129 844,-129"/>
<text text-anchor="middle" x="958" y="-359.7" font-family="Helvetica,sans-Serif" font-size="16.00" fill="white">Микростенд (HP P2000)</text>
</g>
<!-- vapak1 -->
<g id="node1" class="node">
<title>vapak1</title>
<path fill="#0f3460" stroke="black" d="M351,-342.5C351,-342.5 223,-342.5 223,-342.5 217,-342.5 211,-336.5 211,-330.5 211,-330.5 211,-301.5 211,-301.5 211,-295.5 217,-289.5 223,-289.5 223,-289.5 351,-289.5 351,-289.5 357,-289.5 363,-295.5 363,-301.5 363,-301.5 363,-330.5 363,-330.5 363,-336.5 357,-342.5 351,-342.5"/>
<text text-anchor="middle" x="287" y="-327.3" font-family="Times,serif" font-size="14.00" fill="white">hv&#45;01</text>
<text text-anchor="middle" x="287" y="-312.3" font-family="Times,serif" font-size="14.00" fill="white">172.30.20.151</text>
<text text-anchor="middle" x="287" y="-297.3" font-family="Times,serif" font-size="14.00" fill="white">Xeon 18C · 376 GB</text>
</g>
<!-- drbd92 -->
<g id="node3" class="node">
<title>drbd92</title>
<path fill="#533483" stroke="black" d="M260,-222.21C260,-226.92 228.62,-230.75 190,-230.75 151.38,-230.75 120,-226.92 120,-222.21 120,-222.21 120,-145.29 120,-145.29 120,-140.58 151.38,-136.75 190,-136.75 228.62,-136.75 260,-140.58 260,-145.29 260,-145.29 260,-222.21 260,-222.21"/>
<path fill="none" stroke="black" d="M260,-222.21C260,-217.49 228.62,-213.66 190,-213.66 151.38,-213.66 120,-217.49 120,-222.21"/>
<text text-anchor="middle" x="190" y="-202.55" font-family="Times,serif" font-size="14.00" fill="white">DRBD 9.2</text>
<text text-anchor="middle" x="190" y="-187.55" font-family="Times,serif" font-size="14.00" fill="white">dual&#45;primary</text>
<text text-anchor="middle" x="190" y="-172.55" font-family="Times,serif" font-size="14.00" fill="white">/dev/drbd0 1.8TB</text>
<text text-anchor="middle" x="190" y="-157.55" font-family="Times,serif" font-size="14.00" fill="white">LVM thin pool</text>
</g>
<!-- vapak1&#45;&gt;drbd92 -->
<g id="edge1" class="edge">
<title>vapak1&#45;&gt;drbd92</title>
<path fill="none" stroke="black" d="M235.5,-289.24C235.5,-289.24 235.5,-240.02 235.5,-240.02"/>
<polygon fill="black" stroke="black" points="239,-240.02 235.5,-230.02 232,-240.02 239,-240.02"/>
</g>
<!-- vapak2 -->
<g id="node2" class="node">
<title>vapak2</title>
<path fill="#0f3460" stroke="black" d="M156,-342.5C156,-342.5 28,-342.5 28,-342.5 22,-342.5 16,-336.5 16,-330.5 16,-330.5 16,-301.5 16,-301.5 16,-295.5 22,-289.5 28,-289.5 28,-289.5 156,-289.5 156,-289.5 162,-289.5 168,-295.5 168,-301.5 168,-301.5 168,-330.5 168,-330.5 168,-336.5 162,-342.5 156,-342.5"/>
<text text-anchor="middle" x="92" y="-327.3" font-family="Times,serif" font-size="14.00" fill="white">hv&#45;02</text>
<text text-anchor="middle" x="92" y="-312.3" font-family="Times,serif" font-size="14.00" fill="white">172.30.20.152</text>
<text text-anchor="middle" x="92" y="-297.3" font-family="Times,serif" font-size="14.00" fill="white">Xeon 20C · 376 GB</text>
</g>
<!-- vapak2&#45;&gt;drbd92 -->
<g id="edge2" class="edge">
<title>vapak2&#45;&gt;drbd92</title>
<path fill="none" stroke="black" d="M144,-289.24C144,-289.24 144,-240.02 144,-240.02"/>
<polygon fill="black" stroke="black" points="147.5,-240.02 144,-230.02 140.5,-240.02 147.5,-240.02"/>
</g>
<!-- tssd1 -->
<g id="node4" class="node">
<title>tssd1</title>
<path fill="#0f3460" stroke="black" d="M816,-342.5C816,-342.5 728,-342.5 728,-342.5 722,-342.5 716,-336.5 716,-330.5 716,-330.5 716,-301.5 716,-301.5 716,-295.5 722,-289.5 728,-289.5 728,-289.5 816,-289.5 816,-289.5 822,-289.5 828,-295.5 828,-301.5 828,-301.5 828,-330.5 828,-330.5 828,-336.5 822,-342.5 816,-342.5"/>
<text text-anchor="middle" x="772" y="-327.3" font-family="Times,serif" font-size="14.00" fill="white">tssd&#45;n01</text>
<text text-anchor="middle" x="772" y="-312.3" font-family="Times,serif" font-size="14.00" fill="white">10.129.11.21</text>
<text text-anchor="middle" x="772" y="-297.3" font-family="Times,serif" font-size="14.00" fill="white">64C · 251 GB</text>
</g>
<!-- ceph -->
<g id="node7" class="node">
<title>ceph</title>
<path fill="#533483" stroke="black" d="M680.5,-222.21C680.5,-226.92 652.04,-230.75 617,-230.75 581.96,-230.75 553.5,-226.92 553.5,-222.21 553.5,-222.21 553.5,-145.29 553.5,-145.29 553.5,-140.58 581.96,-136.75 617,-136.75 652.04,-136.75 680.5,-140.58 680.5,-145.29 680.5,-145.29 680.5,-222.21 680.5,-222.21"/>
<path fill="none" stroke="black" d="M680.5,-222.21C680.5,-217.49 652.04,-213.66 617,-213.66 581.96,-213.66 553.5,-217.49 553.5,-222.21"/>
<text text-anchor="middle" x="617" y="-202.55" font-family="Times,serif" font-size="14.00" fill="white">Ceph RBD</text>
<text text-anchor="middle" x="617" y="-187.55" font-family="Times,serif" font-size="14.00" fill="white">7×7TB OSD</text>
<text text-anchor="middle" x="617" y="-172.55" font-family="Times,serif" font-size="14.00" fill="white">пул &#39;one&#39;</text>
<text text-anchor="middle" x="617" y="-157.55" font-family="Times,serif" font-size="14.00" fill="white">3x репликация</text>
</g>
<!-- tssd1&#45;&gt;ceph -->
<g id="edge3" class="edge">
<title>tssd1&#45;&gt;ceph</title>
<path fill="none" stroke="black" d="M715.77,-316C695.14,-316 676.75,-316 676.75,-316 676.75,-316 676.75,-237.79 676.75,-237.79"/>
<polygon fill="black" stroke="black" points="680.25,-237.79 676.75,-227.79 673.25,-237.79 680.25,-237.79"/>
</g>
<!-- tssd2 -->
<g id="node5" class="node">
<title>tssd2</title>
<path fill="#0f3460" stroke="black" d="M661,-342.5C661,-342.5 573,-342.5 573,-342.5 567,-342.5 561,-336.5 561,-330.5 561,-330.5 561,-301.5 561,-301.5 561,-295.5 567,-289.5 573,-289.5 573,-289.5 661,-289.5 661,-289.5 667,-289.5 673,-295.5 673,-301.5 673,-301.5 673,-330.5 673,-330.5 673,-336.5 667,-342.5 661,-342.5"/>
<text text-anchor="middle" x="617" y="-327.3" font-family="Times,serif" font-size="14.00" fill="white">tssd&#45;n02</text>
<text text-anchor="middle" x="617" y="-312.3" font-family="Times,serif" font-size="14.00" fill="white">10.129.11.22</text>
<text text-anchor="middle" x="617" y="-297.3" font-family="Times,serif" font-size="14.00" fill="white">64C · 251 GB</text>
</g>
<!-- tssd2&#45;&gt;ceph -->
<g id="edge4" class="edge">
<title>tssd2&#45;&gt;ceph</title>
<path fill="none" stroke="black" d="M617,-289.24C617,-289.24 617,-240.55 617,-240.55"/>
<polygon fill="black" stroke="black" points="620.5,-240.55 617,-230.55 613.5,-240.55 620.5,-240.55"/>
</g>
<!-- tssd3 -->
<g id="node6" class="node">
<title>tssd3</title>
<path fill="#0f3460" stroke="black" d="M506,-342.5C506,-342.5 418,-342.5 418,-342.5 412,-342.5 406,-336.5 406,-330.5 406,-330.5 406,-301.5 406,-301.5 406,-295.5 412,-289.5 418,-289.5 418,-289.5 506,-289.5 506,-289.5 512,-289.5 518,-295.5 518,-301.5 518,-301.5 518,-330.5 518,-330.5 518,-336.5 512,-342.5 506,-342.5"/>
<text text-anchor="middle" x="462" y="-327.3" font-family="Times,serif" font-size="14.00" fill="white">tssd&#45;n03</text>
<text text-anchor="middle" x="462" y="-312.3" font-family="Times,serif" font-size="14.00" fill="white">10.129.11.23</text>
<text text-anchor="middle" x="462" y="-297.3" font-family="Times,serif" font-size="14.00" fill="white">64C · 251 GB</text>
</g>
<!-- tssd3&#45;&gt;ceph -->
<g id="edge5" class="edge">
<title>tssd3&#45;&gt;ceph</title>
<path fill="none" stroke="black" d="M518.23,-316C538.86,-316 557.25,-316 557.25,-316 557.25,-316 557.25,-237.79 557.25,-237.79"/>
<polygon fill="black" stroke="black" points="560.75,-237.79 557.25,-227.79 553.75,-237.79 560.75,-237.79"/>
</g>
<!-- ceph_net -->
<g id="node8" class="node">
<title>ceph_net</title>
<polygon fill="#2a2a4e" stroke="black" points="648,-78 580,-78 580,-42 654,-42 654,-72 648,-78"/>
<polyline fill="none" stroke="black" points="648,-78 648,-72 "/>
<polyline fill="none" stroke="black" points="654,-72 648,-72 "/>
<text text-anchor="middle" x="617" y="-67.1" font-family="Times,serif" font-size="8.00" fill="white">10.129.12/24</text>
<text text-anchor="middle" x="617" y="-58.1" font-family="Times,serif" font-size="8.00" fill="white">Ceph backend</text>
<text text-anchor="middle" x="617" y="-49.1" font-family="Times,serif" font-size="8.00" fill="white">MTU 9000</text>
</g>
<!-- ceph&#45;&gt;ceph_net -->
<g id="edge6" class="edge">
<title>ceph&#45;&gt;ceph_net</title>
<path fill="none" stroke="#000000" stroke-dasharray="1,5" d="M617,-136.97C617,-136.97 617,-88.1 617,-88.1"/>
<polygon fill="#000000" stroke="#000000" points="620.5,-88.1 617,-78.1 613.5,-88.1 620.5,-88.1"/>
</g>
<!-- micro -->
<g id="node9" class="node">
<title>micro</title>
<path fill="#0f3460" stroke="black" d="M992,-342.5C992,-342.5 896,-342.5 896,-342.5 890,-342.5 884,-336.5 884,-330.5 884,-330.5 884,-301.5 884,-301.5 884,-295.5 890,-289.5 896,-289.5 896,-289.5 992,-289.5 992,-289.5 998,-289.5 1004,-295.5 1004,-301.5 1004,-301.5 1004,-330.5 1004,-330.5 1004,-336.5 998,-342.5 992,-342.5"/>
<text text-anchor="middle" x="944" y="-327.3" font-family="Times,serif" font-size="14.00" fill="white">bkvm1n1</text>
<text text-anchor="middle" x="944" y="-312.3" font-family="Times,serif" font-size="14.00" fill="white">172.30.20.250</text>
<text text-anchor="middle" x="944" y="-297.3" font-family="Times,serif" font-size="14.00" fill="white">Xeon · 188 GB</text>
</g>
<!-- hp -->
<g id="node10" class="node">
<title>hp</title>
<path fill="#533483" stroke="black" d="M1063.5,-222.21C1063.5,-226.92 1016.21,-230.75 958,-230.75 899.79,-230.75 852.5,-226.92 852.5,-222.21 852.5,-222.21 852.5,-145.29 852.5,-145.29 852.5,-140.58 899.79,-136.75 958,-136.75 1016.21,-136.75 1063.5,-140.58 1063.5,-145.29 1063.5,-145.29 1063.5,-222.21 1063.5,-222.21"/>
<path fill="none" stroke="black" d="M1063.5,-222.21C1063.5,-217.49 1016.21,-213.66 958,-213.66 899.79,-213.66 852.5,-217.49 852.5,-222.21"/>
<text text-anchor="middle" x="958" y="-202.55" font-family="Times,serif" font-size="14.00" fill="white">HP P2000 G3 FC</text>
<text text-anchor="middle" x="958" y="-187.55" font-family="Times,serif" font-size="14.00" fill="white">FC LUN 1.4TB</text>
<text text-anchor="middle" x="958" y="-172.55" font-family="Times,serif" font-size="14.00" fill="white">vg_vmdata</text>
<text text-anchor="middle" x="958" y="-157.55" font-family="Times,serif" font-size="14.00" fill="white">ВРАЩАЮЩИЕСЯ ДИСКИ</text>
</g>
<!-- micro&#45;&gt;hp -->
<g id="edge7" class="edge">
<title>micro&#45;&gt;hp</title>
<path fill="none" stroke="black" d="M944,-289.24C944,-289.24 944,-240.55 944,-240.55"/>
<polygon fill="black" stroke="black" points="947.5,-240.55 944,-230.55 940.5,-240.55 947.5,-240.55"/>
</g>
<!-- vps -->
<g id="node11" class="node">
<title>vps</title>
<path fill="#e94560" stroke="black" d="M829.5,-496.5C829.5,-496.5 714.5,-496.5 714.5,-496.5 708.5,-496.5 702.5,-490.5 702.5,-484.5 702.5,-484.5 702.5,-440.5 702.5,-440.5 702.5,-434.5 708.5,-428.5 714.5,-428.5 714.5,-428.5 829.5,-428.5 829.5,-428.5 835.5,-428.5 841.5,-434.5 841.5,-440.5 841.5,-440.5 841.5,-484.5 841.5,-484.5 841.5,-490.5 835.5,-496.5 829.5,-496.5"/>
<text text-anchor="middle" x="772" y="-481.3" font-family="Times,serif" font-size="14.00" fill="white">VPS</text>
<text text-anchor="middle" x="772" y="-466.3" font-family="Times,serif" font-size="14.00" fill="white">170.168.91.95</text>
<text text-anchor="middle" x="772" y="-451.3" font-family="Times,serif" font-size="14.00" fill="white">DeepSeek v4 Pro</text>
<text text-anchor="middle" x="772" y="-436.3" font-family="Times,serif" font-size="14.00" fill="white">fio&#45;тесты</text>
</g>
<!-- vps&#45;&gt;vapak1 -->
<g id="edge8" class="edge">
<title>vps&#45;&gt;vapak1</title>
<path fill="none" stroke="#00ff88" d="M702.25,-462C568.04,-462 287,-462 287,-462 287,-462 287,-352.78 287,-352.78"/>
<polygon fill="#00ff88" stroke="#00ff88" points="290.5,-352.78 287,-342.78 283.5,-352.78 290.5,-352.78"/>
<text text-anchor="middle" x="506" y="-388.3" font-family="Times,serif" font-size="14.00">HuaweiHP VPN</text>
</g>
<!-- vps&#45;&gt;tssd1 -->
<g id="edge9" class="edge">
<title>vps&#45;&gt;tssd1</title>
<path fill="none" stroke="#00ff88" d="M772,-428.15C772,-428.15 772,-352.82 772,-352.82"/>
<polygon fill="#00ff88" stroke="#00ff88" points="775.5,-352.82 772,-342.82 768.5,-352.82 775.5,-352.82"/>
<text text-anchor="middle" x="823" y="-388.3" font-family="Times,serif" font-size="14.00">Cisco815 VPN</text>
</g>
<!-- vps&#45;&gt;micro -->
<g id="edge10" class="edge">
<title>vps&#45;&gt;micro</title>
<path fill="none" stroke="#00ff88" d="M834.75,-428.15C834.75,-384.85 834.75,-316 834.75,-316 834.75,-316 873.94,-316 873.94,-316"/>
<polygon fill="#00ff88" stroke="#00ff88" points="873.94,-319.5 883.94,-316 873.94,-312.5 873.94,-319.5"/>
<text text-anchor="middle" x="989" y="-388.3" font-family="Times,serif" font-size="14.00">HuaweiHP VPN</text>
</g>
</g>
</svg>
