<?xml version="1.0" encoding="UTF-8" standalone="no"?>
<!DOCTYPE svg PUBLIC "-//W3C//DTD SVG 1.1//EN"
 "http://www.w3.org/Graphics/SVG/1.1/DTD/svg11.dtd">
<!-- Generated by graphviz version 2.43.0 (0)
 -->
<!-- Title: Disk_Load_Testing Pages: 1 -->
<svg width="4467pt" height="3090pt"
 viewBox="0.00 0.00 1072.00 741.50" xmlns="http://www.w3.org/2000/svg" xmlns:xlink="http://www.w3.org/1999/xlink">
<g id="graph0" class="graph" transform="scale(4.17 4.17) rotate(0) translate(4 737.5)">
<title>Disk_Load_Testing</title>
<polygon fill="white" stroke="transparent" points="-4,4 -4,-737.5 1068,-737.5 1068,4 -4,4"/>
<text text-anchor="middle" x="532" y="-715.9" font-family="Helvetica,sans-Serif" font-size="17.00" fill="#1a237e">Сравнительное нагрузочное тестирование дисковых подсистем СХД</text>
<text text-anchor="middle" x="532" y="-696.9" font-family="Helvetica,sans-Serif" font-size="17.00" fill="#1a237e">4 бэкенда · 7 профилей fio · Закон Литтла · USL&#45;масштабируемость</text>
<text text-anchor="middle" x="532" y="-677.9" font-family="Helvetica,sans-Serif" font-size="17.00" fill="#1a237e">27 июня 2026</text>
<g id="clust1" class="cluster">
<title>cluster_b1a</title>
<path fill="#c8e6c9" stroke="#2e7d32" d="M20,-141C20,-141 158,-141 158,-141 164,-141 170,-147 170,-153 170,-153 170,-547 170,-547 170,-553 164,-559 158,-559 158,-559 20,-559 20,-559 14,-559 8,-553 8,-547 8,-547 8,-153 8,-153 8,-147 14,-141 20,-141"/>
<text text-anchor="middle" x="89" y="-547" font-family="Helvetica,sans-Serif" font-size="10.00" fill="#1a237e">B1a: DRBD 8.4 (micropak)</text>
<text text-anchor="middle" x="89" y="-536" font-family="Helvetica,sans-Serif" font-size="10.00" fill="#1a237e">ТОЛСТЫЙ LV — ЭТАЛОН</text>
</g>
<g id="clust2" class="cluster">
<title>cluster_b1b</title>
<path fill="#fff9c4" stroke="#f57f17" d="M202,-146C202,-146 354,-146 354,-146 360,-146 366,-152 366,-158 366,-158 366,-547 366,-547 366,-553 360,-559 354,-559 354,-559 202,-559 202,-559 196,-559 190,-553 190,-547 190,-547 190,-158 190,-158 190,-152 196,-146 202,-146"/>
<text text-anchor="middle" x="278" y="-547" font-family="Helvetica,sans-Serif" font-size="10.00" fill="#1a237e">B1b: DRBD 9.2 (vapak)</text>
<text text-anchor="middle" x="278" y="-536" font-family="Helvetica,sans-Serif" font-size="10.00" fill="#1a237e">THIN POOL — ЗАМЕДЛЕНИЕ</text>
</g>
<g id="clust3" class="cluster">
<title>cluster_b2</title>
<path fill="#e3f2fd" stroke="#1565c0" d="M386,-8C386,-8 641,-8 641,-8 647,-8 653,-14 653,-20 653,-20 653,-542 653,-542 653,-548 647,-554 641,-554 641,-554 386,-554 386,-554 380,-554 374,-548 374,-542 374,-542 374,-20 374,-20 374,-14 380,-8 386,-8"/>
<text text-anchor="middle" x="513.5" y="-542" font-family="Helvetica,sans-Serif" font-size="10.00" fill="#1a237e">B2: Ceph RBD (tssd)</text>
<text text-anchor="middle" x="513.5" y="-531" font-family="Helvetica,sans-Serif" font-size="10.00" fill="#1a237e">7×7TB OSD — СЕТЕВОЙ ОВЕРХЕД</text>
</g>
<g id="clust4" class="cluster">
<title>cluster_b3</title>
<path fill="#ffcdd2" stroke="#c62828" d="M683,-301C683,-301 838,-301 838,-301 844,-301 850,-307 850,-313 850,-313 850,-547 850,-547 850,-553 844,-559 838,-559 838,-559 683,-559 683,-559 677,-559 671,-553 671,-547 671,-547 671,-313 671,-313 671,-307 677,-301 683,-301"/>
<text text-anchor="middle" x="760.5" y="-547" font-family="Helvetica,sans-Serif" font-size="10.00" fill="#1a237e">B3: HP P2000 G3 FC (microstand)</text>
<text text-anchor="middle" x="760.5" y="-536" font-family="Helvetica,sans-Serif" font-size="10.00" fill="#1a237e">HDD — ОЖИДАЕМО СЛАБЫЙ</text>
</g>
<g id="clust5" class="cluster">
<title>cluster_legend</title>
<path fill="#f5f5f5" stroke="#9e9e9e" d="M880,-169C880,-169 1044,-169 1044,-169 1050,-169 1056,-175 1056,-181 1056,-181 1056,-648.5 1056,-648.5 1056,-654.5 1050,-660.5 1044,-660.5 1044,-660.5 880,-660.5 880,-660.5 874,-660.5 868,-654.5 868,-648.5 868,-648.5 868,-181 868,-181 868,-175 874,-169 880,-169"/>
<text text-anchor="middle" x="962" y="-648.5" font-family="Helvetica,sans-Serif" font-size="10.00" fill="#1a237e">МЕТОДИКА ТЕСТИРОВАНИЯ</text>
</g>
<!-- vpn -->
<g id="node1" class="node">
<title>vpn</title>
<polygon fill="#e3f2fd" stroke="#0d47a1" points="443,-638 225,-638 225,-634 221,-634 221,-630 225,-630 225,-601 221,-601 221,-597 225,-597 225,-593 443,-593 443,-638"/>
<polyline fill="none" stroke="#0d47a1" points="225,-634 229,-634 229,-630 225,-630 "/>
<polyline fill="none" stroke="#0d47a1" points="225,-601 229,-601 229,-597 225,-597 "/>
<text text-anchor="middle" x="334" y="-624" font-family="Helvetica,sans-Serif" font-size="10.00">VPS Hermes Agent</text>
<text text-anchor="middle" x="334" y="-613" font-family="Helvetica,sans-Serif" font-size="10.00">DeepSeek v4 Pro</text>
<text text-anchor="middle" x="334" y="-602" font-family="Helvetica,sans-Serif" font-size="10.00">VPN: HuaweiHP (tun0) + Cisco815 (tun1)</text>
</g>
<!-- b1a_hv01 -->
<g id="node2" class="node">
<title>b1a_hv01</title>
<path fill="#a5d6a7" stroke="#1b5e20" d="M147,-521C147,-521 53,-521 53,-521 47,-521 41,-515 41,-509 41,-509 41,-481 41,-481 41,-475 47,-469 53,-469 53,-469 147,-469 147,-469 153,-469 159,-475 159,-481 159,-481 159,-509 159,-509 159,-515 153,-521 147,-521"/>
<text text-anchor="middle" x="100" y="-507.8" font-family="Helvetica,sans-Serif" font-size="9.00">hv&#45;01 (172.30.20.51)</text>
<text text-anchor="middle" x="100" y="-497.8" font-family="Helvetica,sans-Serif" font-size="9.00">Xeon 6254 18C/36T</text>
<text text-anchor="middle" x="100" y="-487.8" font-family="Helvetica,sans-Serif" font-size="9.00">376 GB RAM</text>
<text text-anchor="middle" x="100" y="-477.8" font-family="Helvetica,sans-Serif" font-size="9.00">DRBD 8.4 Protocol C</text>
</g>
<!-- vpn&#45;&gt;b1a_hv01 -->
<g id="edge13" class="edge">
<title>vpn&#45;&gt;b1a_hv01</title>
<path fill="none" stroke="#78909c" stroke-dasharray="1,5" d="M224.88,-615C163.87,-615 100,-615 100,-615 100,-615 100,-528.04 100,-528.04"/>
<polygon fill="#78909c" stroke="#78909c" points="102.45,-528.04 100,-521.04 97.55,-528.04 102.45,-528.04"/>
</g>
<!-- b1b_hv01 -->
<g id="node5" class="node">
<title>b1b_hv01</title>
<path fill="#ffe082" stroke="#e65100" d="M333,-521C333,-521 233,-521 233,-521 227,-521 221,-515 221,-509 221,-509 221,-481 221,-481 221,-475 227,-469 233,-469 233,-469 333,-469 333,-469 339,-469 345,-475 345,-481 345,-481 345,-509 345,-509 345,-515 339,-521 333,-521"/>
<text text-anchor="middle" x="283" y="-507.8" font-family="Helvetica,sans-Serif" font-size="9.00">hv&#45;01 (172.30.20.151)</text>
<text text-anchor="middle" x="283" y="-497.8" font-family="Helvetica,sans-Serif" font-size="9.00">376 GB RAM</text>
<text text-anchor="middle" x="283" y="-487.8" font-family="Helvetica,sans-Serif" font-size="9.00">DRBD 9.2.8</text>
<text text-anchor="middle" x="283" y="-477.8" font-family="Helvetica,sans-Serif" font-size="9.00">LVM thin pool</text>
</g>
<!-- vpn&#45;&gt;b1b_hv01 -->
<g id="edge14" class="edge">
<title>vpn&#45;&gt;b1b_hv01</title>
<path fill="none" stroke="#78909c" stroke-dasharray="1,5" d="M285,-592.83C285,-592.83 285,-528.34 285,-528.34"/>
<polygon fill="#78909c" stroke="#78909c" points="287.45,-528.34 285,-521.34 282.55,-528.34 287.45,-528.34"/>
</g>
<!-- b2_n01 -->
<g id="node8" class="node">
<title>b2_n01</title>
<path fill="#bbdefb" stroke="#0d47a1" d="M502,-516C502,-516 394,-516 394,-516 388,-516 382,-510 382,-504 382,-504 382,-486 382,-486 382,-480 388,-474 394,-474 394,-474 502,-474 502,-474 508,-474 514,-480 514,-486 514,-486 514,-504 514,-504 514,-510 508,-516 502,-516"/>
<text text-anchor="middle" x="448" y="-502.8" font-family="Helvetica,sans-Serif" font-size="9.00">tssd&#45;n01 (10.129.11.21)</text>
<text text-anchor="middle" x="448" y="-492.8" font-family="Helvetica,sans-Serif" font-size="9.00">64C · 251 GB RAM</text>
<text text-anchor="middle" x="448" y="-482.8" font-family="Helvetica,sans-Serif" font-size="9.00">OSD 6800&#45;6815</text>
</g>
<!-- vpn&#45;&gt;b2_n01 -->
<g id="edge15" class="edge">
<title>vpn&#45;&gt;b2_n01</title>
<path fill="none" stroke="#78909c" stroke-dasharray="1,5" d="M412.5,-592.83C412.5,-592.83 412.5,-523.35 412.5,-523.35"/>
<polygon fill="#78909c" stroke="#78909c" points="414.95,-523.35 412.5,-516.35 410.05,-523.35 414.95,-523.35"/>
</g>
<!-- b3_n1 -->
<g id="node12" class="node">
<title>b3_n1</title>
<path fill="#ef9a9a" stroke="#b71c1c" d="M780.5,-521C780.5,-521 709.5,-521 709.5,-521 703.5,-521 697.5,-515 697.5,-509 697.5,-509 697.5,-481 697.5,-481 697.5,-475 703.5,-469 709.5,-469 709.5,-469 780.5,-469 780.5,-469 786.5,-469 792.5,-475 792.5,-481 792.5,-481 792.5,-509 792.5,-509 792.5,-515 786.5,-521 780.5,-521"/>
<text text-anchor="middle" x="745" y="-507.8" font-family="Helvetica,sans-Serif" font-size="9.00">microstand&#45;01</text>
<text text-anchor="middle" x="745" y="-497.8" font-family="Helvetica,sans-Serif" font-size="9.00">(172.30.20.250)</text>
<text text-anchor="middle" x="745" y="-487.8" font-family="Helvetica,sans-Serif" font-size="9.00">188 GB RAM</text>
<text text-anchor="middle" x="745" y="-477.8" font-family="Helvetica,sans-Serif" font-size="9.00">FC multipath</text>
</g>
<!-- vpn&#45;&gt;b3_n1 -->
<g id="edge16" class="edge">
<title>vpn&#45;&gt;b3_n1</title>
<path fill="none" stroke="#78909c" stroke-dasharray="1,5" d="M443.06,-615C564.82,-615 745,-615 745,-615 745,-615 745,-528.04 745,-528.04"/>
<polygon fill="#78909c" stroke="#78909c" points="747.45,-528.04 745,-521.04 742.55,-528.04 747.45,-528.04"/>
</g>
<!-- b1a_hv02 -->
<g id="node3" class="node">
<title>b1a_hv02</title>
<path fill="#a5d6a7" stroke="#1b5e20" d="M145,-381C145,-381 51,-381 51,-381 45,-381 39,-375 39,-369 39,-369 39,-341 39,-341 39,-335 45,-329 51,-329 51,-329 145,-329 145,-329 151,-329 157,-335 157,-341 157,-341 157,-369 157,-369 157,-375 151,-381 145,-381"/>
<text text-anchor="middle" x="98" y="-367.8" font-family="Helvetica,sans-Serif" font-size="9.00">hv&#45;02 (172.30.20.52)</text>
<text text-anchor="middle" x="98" y="-357.8" font-family="Helvetica,sans-Serif" font-size="9.00">Xeon 6248 20C/40T</text>
<text text-anchor="middle" x="98" y="-347.8" font-family="Helvetica,sans-Serif" font-size="9.00">376 GB RAM</text>
<text text-anchor="middle" x="98" y="-337.8" font-family="Helvetica,sans-Serif" font-size="9.00">DRBD 8.4 Protocol C</text>
</g>
<!-- b1a_hv01&#45;&gt;b1a_hv02 -->
<g id="edge1" class="edge">
<title>b1a_hv01&#45;&gt;b1a_hv02</title>
<path fill="none" stroke="#2e7d32" stroke-width="2" d="M99,-462C99,-462 99,-388.34 99,-388.34"/>
<polygon fill="#2e7d32" stroke="#2e7d32" stroke-width="2" points="101.45,-388.34 99,-381.34 96.55,-388.34 101.45,-388.34"/>
<polygon fill="#2e7d32" stroke="#2e7d32" stroke-width="2" points="96.55,-462 99,-469 101.45,-462 96.55,-462"/>
<text text-anchor="middle" x="121" y="-433.1" font-family="Helvetica,sans-Serif" font-size="8.00">DRBD sync</text>
</g>
<!-- b1a_dev -->
<g id="node4" class="node">
<title>b1a_dev</title>
<path fill="#66bb6a" stroke="#1b5e20" d="M149.5,-241C149.5,-241 28.5,-241 28.5,-241 22.5,-241 16.5,-235 16.5,-229 16.5,-229 16.5,-161 16.5,-161 16.5,-155 22.5,-149 28.5,-149 28.5,-149 149.5,-149 149.5,-149 155.5,-149 161.5,-155 161.5,-161 161.5,-161 161.5,-229 161.5,-229 161.5,-235 155.5,-241 149.5,-241"/>
<text text-anchor="middle" x="89" y="-227.8" font-family="Helvetica,sans-Serif" font-size="9.00">/dev/drbd0 3.5TB</text>
<text text-anchor="middle" x="89" y="-217.8" font-family="Helvetica,sans-Serif" font-size="9.00">LVM vg&#45;pak</text>
<text text-anchor="middle" x="89" y="-207.8" font-family="Helvetica,sans-Serif" font-size="9.00">LV толстый 10GB</text>
<text text-anchor="middle" x="89" y="-197.8" font-family="Helvetica,sans-Serif" font-size="9.00">───────</text>
<text text-anchor="middle" x="89" y="-187.8" font-family="Helvetica,sans-Serif" font-size="9.00">P1 OLTP: 100K IOPS · 216μs</text>
<text text-anchor="middle" x="89" y="-177.8" font-family="Helvetica,sans-Serif" font-size="9.00">P5 Metadata: 204K IOPS</text>
<text text-anchor="middle" x="89" y="-167.8" font-family="Helvetica,sans-Serif" font-size="9.00">P6 fsync: 2.3K IOPS</text>
<text text-anchor="middle" x="89" y="-157.8" font-family="Helvetica,sans-Serif" font-size="9.00">🏆 АБСОЛЮТНЫЙ ЛИДЕР</text>
</g>
<!-- b1a_hv02&#45;&gt;b1a_dev -->
<!-- b1b_hv02 -->
<g id="node6" class="node">
<title>b1b_hv02</title>
<path fill="#ffe082" stroke="#e65100" d="M330,-376C330,-376 230,-376 230,-376 224,-376 218,-370 218,-364 218,-364 218,-346 218,-346 218,-340 224,-334 230,-334 230,-334 330,-334 330,-334 336,-334 342,-340 342,-346 342,-346 342,-364 342,-364 342,-370 336,-376 330,-376"/>
<text text-anchor="middle" x="280" y="-362.8" font-family="Helvetica,sans-Serif" font-size="9.00">hv&#45;02 (172.30.20.152)</text>
<text text-anchor="middle" x="280" y="-352.8" font-family="Helvetica,sans-Serif" font-size="9.00">376 GB RAM</text>
<text text-anchor="middle" x="280" y="-342.8" font-family="Helvetica,sans-Serif" font-size="9.00">DRBD 9.2.8</text>
</g>
<!-- b1b_hv01&#45;&gt;b1b_hv02 -->
<g id="edge3" class="edge">
<title>b1b_hv01&#45;&gt;b1b_hv02</title>
<path fill="none" stroke="#f57f17" stroke-width="2" d="M281.5,-462C281.5,-462 281.5,-383.29 281.5,-383.29"/>
<polygon fill="#f57f17" stroke="#f57f17" stroke-width="2" points="283.95,-383.29 281.5,-376.29 279.05,-383.29 283.95,-383.29"/>
<polygon fill="#f57f17" stroke="#f57f17" stroke-width="2" points="279.05,-462 281.5,-469 283.95,-462 279.05,-462"/>
<text text-anchor="middle" x="302" y="-433.1" font-family="Helvetica,sans-Serif" font-size="8.00">DRBD sync</text>
</g>
<!-- b1b_dev -->
<g id="node7" class="node">
<title>b1b_dev</title>
<path fill="#ffd54f" stroke="#e65100" d="M346,-236C346,-236 210,-236 210,-236 204,-236 198,-230 198,-224 198,-224 198,-166 198,-166 198,-160 204,-154 210,-154 210,-154 346,-154 346,-154 352,-154 358,-160 358,-166 358,-166 358,-224 358,-224 358,-230 352,-236 346,-236"/>
<text text-anchor="middle" x="278" y="-222.8" font-family="Helvetica,sans-Serif" font-size="9.00">/dev/vg_kvm/fio&#45;test</text>
<text text-anchor="middle" x="278" y="-212.8" font-family="Helvetica,sans-Serif" font-size="9.00">thin LV 10GB</text>
<text text-anchor="middle" x="278" y="-202.8" font-family="Helvetica,sans-Serif" font-size="9.00">───────</text>
<text text-anchor="middle" x="278" y="-192.8" font-family="Helvetica,sans-Serif" font-size="9.00">P1 OLTP: 51K IOPS · 562μs</text>
<text text-anchor="middle" x="278" y="-182.8" font-family="Helvetica,sans-Serif" font-size="9.00">P5 Metadata: 81K IOPS</text>
<text text-anchor="middle" x="278" y="-172.8" font-family="Helvetica,sans-Serif" font-size="9.00">P6 fsync: 4.3K IOPS</text>
<text text-anchor="middle" x="278" y="-162.8" font-family="Helvetica,sans-Serif" font-size="9.00">⚠ &#45;49% vs B1a (thin overhead)</text>
</g>
<!-- b1b_hv02&#45;&gt;b1b_dev -->
<!-- b2_n02 -->
<g id="node9" class="node">
<title>b2_n02</title>
<path fill="#bbdefb" stroke="#0d47a1" d="M502,-376C502,-376 394,-376 394,-376 388,-376 382,-370 382,-364 382,-364 382,-346 382,-346 382,-340 388,-334 394,-334 394,-334 502,-334 502,-334 508,-334 514,-340 514,-346 514,-346 514,-364 514,-364 514,-370 508,-376 502,-376"/>
<text text-anchor="middle" x="448" y="-362.8" font-family="Helvetica,sans-Serif" font-size="9.00">tssd&#45;n02 (10.129.11.22)</text>
<text text-anchor="middle" x="448" y="-352.8" font-family="Helvetica,sans-Serif" font-size="9.00">64C · 251 GB RAM</text>
<text text-anchor="middle" x="448" y="-342.8" font-family="Helvetica,sans-Serif" font-size="9.00">OSD 6800&#45;6815</text>
</g>
<!-- b2_n01&#45;&gt;b2_n02 -->
<g id="edge5" class="edge">
<title>b2_n01&#45;&gt;b2_n02</title>
<path fill="none" stroke="#1565c0" stroke-width="2" d="M448,-466.74C448,-466.74 448,-383 448,-383"/>
<polygon fill="#1565c0" stroke="#1565c0" stroke-width="2" points="450.45,-383 448,-376 445.55,-383 450.45,-383"/>
<polygon fill="#1565c0" stroke="#1565c0" stroke-width="2" points="445.55,-466.74 448,-473.74 450.45,-466.74 445.55,-466.74"/>
<text text-anchor="middle" x="477.5" y="-437.6" font-family="Helvetica,sans-Serif" font-size="8.00">10.129.12/24</text>
<text text-anchor="middle" x="477.5" y="-428.6" font-family="Helvetica,sans-Serif" font-size="8.00">Ceph backend</text>
</g>
<!-- b2_n03 -->
<g id="node10" class="node">
<title>b2_n03</title>
<path fill="#bbdefb" stroke="#0d47a1" d="M567,-216C567,-216 459,-216 459,-216 453,-216 447,-210 447,-204 447,-204 447,-186 447,-186 447,-180 453,-174 459,-174 459,-174 567,-174 567,-174 573,-174 579,-180 579,-186 579,-186 579,-204 579,-204 579,-210 573,-216 567,-216"/>
<text text-anchor="middle" x="513" y="-202.8" font-family="Helvetica,sans-Serif" font-size="9.00">tssd&#45;n03 (10.129.11.23)</text>
<text text-anchor="middle" x="513" y="-192.8" font-family="Helvetica,sans-Serif" font-size="9.00">64C · 251 GB RAM</text>
<text text-anchor="middle" x="513" y="-182.8" font-family="Helvetica,sans-Serif" font-size="9.00">OSD 6800&#45;6815</text>
</g>
<!-- b2_n02&#45;&gt;b2_n03 -->
<g id="edge6" class="edge">
<title>b2_n02&#45;&gt;b2_n03</title>
<path fill="none" stroke="#1565c0" stroke-width="2" d="M480.5,-326.75C480.5,-326.75 480.5,-223.08 480.5,-223.08"/>
<polygon fill="#1565c0" stroke="#1565c0" stroke-width="2" points="482.95,-223.08 480.5,-216.08 478.05,-223.08 482.95,-223.08"/>
<polygon fill="#1565c0" stroke="#1565c0" stroke-width="2" points="478.05,-326.75 480.5,-333.75 482.95,-326.75 478.05,-326.75"/>
<text text-anchor="middle" x="509.5" y="-277.6" font-family="Helvetica,sans-Serif" font-size="8.00">10.129.12/24</text>
<text text-anchor="middle" x="509.5" y="-268.6" font-family="Helvetica,sans-Serif" font-size="8.00">Ceph backend</text>
</g>
<!-- b2_n03&#45;&gt;b2_n01 -->
<g id="edge7" class="edge">
<title>b2_n03&#45;&gt;b2_n01</title>
<path fill="none" stroke="#1565c0" stroke-width="2" d="M546.5,-223.1C546.5,-223.1 546.5,-495 546.5,-495 546.5,-495 521.25,-495 521.25,-495"/>
<polygon fill="#1565c0" stroke="#1565c0" stroke-width="2" points="548.95,-223.1 546.5,-216.1 544.05,-223.1 548.95,-223.1"/>
<polygon fill="#1565c0" stroke="#1565c0" stroke-width="2" points="521.25,-492.55 514.25,-495 521.25,-497.45 521.25,-492.55"/>
<text text-anchor="middle" x="615.5" y="-357.6" font-family="Helvetica,sans-Serif" font-size="8.00">10.129.12/24</text>
<text text-anchor="middle" x="615.5" y="-348.6" font-family="Helvetica,sans-Serif" font-size="8.00">Ceph backend</text>
</g>
<!-- b2_dev -->
<g id="node11" class="node">
<title>b2_dev</title>
<path fill="#90caf9" stroke="#0d47a1" d="M598,-98C598,-98 428,-98 428,-98 422,-98 416,-92 416,-86 416,-86 416,-28 416,-28 416,-22 422,-16 428,-16 428,-16 598,-16 598,-16 604,-16 610,-22 610,-28 610,-28 610,-86 610,-86 610,-92 604,-98 598,-98"/>
<text text-anchor="middle" x="513" y="-84.8" font-family="Helvetica,sans-Serif" font-size="9.00">/dev/rbd0 (pool &#39;one&#39;)</text>
<text text-anchor="middle" x="513" y="-74.8" font-family="Helvetica,sans-Serif" font-size="9.00">RBD 10GB</text>
<text text-anchor="middle" x="513" y="-64.8" font-family="Helvetica,sans-Serif" font-size="9.00">───────</text>
<text text-anchor="middle" x="513" y="-54.8" font-family="Helvetica,sans-Serif" font-size="9.00">P1 OLTP: 9.3K IOPS · 4.5ms</text>
<text text-anchor="middle" x="513" y="-44.8" font-family="Helvetica,sans-Serif" font-size="9.00">P5 Metadata: 28K IOPS</text>
<text text-anchor="middle" x="513" y="-34.8" font-family="Helvetica,sans-Serif" font-size="9.00">P6 fsync: 544 IOPS</text>
<text text-anchor="middle" x="513" y="-24.8" font-family="Helvetica,sans-Serif" font-size="9.00">⚠ &#45;82% vs B1a (network + replication)</text>
</g>
<!-- b2_n03&#45;&gt;b2_dev -->
<!-- b3_dev -->
<g id="node13" class="node">
<title>b3_dev</title>
<path fill="#e57373" stroke="#b71c1c" d="M828.5,-401C828.5,-401 693.5,-401 693.5,-401 687.5,-401 681.5,-395 681.5,-389 681.5,-389 681.5,-321 681.5,-321 681.5,-315 687.5,-309 693.5,-309 693.5,-309 828.5,-309 828.5,-309 834.5,-309 840.5,-315 840.5,-321 840.5,-321 840.5,-389 840.5,-389 840.5,-395 834.5,-401 828.5,-401"/>
<text text-anchor="middle" x="761" y="-387.8" font-family="Helvetica,sans-Serif" font-size="9.00">/dev/vg_vmdata/fio&#45;test</text>
<text text-anchor="middle" x="761" y="-377.8" font-family="Helvetica,sans-Serif" font-size="9.00">FC LUN 1.4TB</text>
<text text-anchor="middle" x="761" y="-367.8" font-family="Helvetica,sans-Serif" font-size="9.00">LV толстый 10GB</text>
<text text-anchor="middle" x="761" y="-357.8" font-family="Helvetica,sans-Serif" font-size="9.00">───────</text>
<text text-anchor="middle" x="761" y="-347.8" font-family="Helvetica,sans-Serif" font-size="9.00">P1 OLTP: 1K IOPS · 22ms</text>
<text text-anchor="middle" x="761" y="-337.8" font-family="Helvetica,sans-Serif" font-size="9.00">P5 Metadata: 1.4K IOPS</text>
<text text-anchor="middle" x="761" y="-327.8" font-family="Helvetica,sans-Serif" font-size="9.00">P6 fsync: 1.4K IOPS</text>
<text text-anchor="middle" x="761" y="-317.8" font-family="Helvetica,sans-Serif" font-size="9.00">⚠ &#45;99% vs B1a (spinning HDD)</text>
</g>
<!-- b3_n1&#45;&gt;b3_dev -->
<!-- p1 -->
<g id="node14" class="node">
<title>p1</title>
<path fill="#eeeeee" stroke="#757575" d="M1026,-633.5C1026,-633.5 898,-633.5 898,-633.5 892,-633.5 886,-627.5 886,-621.5 886,-621.5 886,-609.5 886,-609.5 886,-603.5 892,-597.5 898,-597.5 898,-597.5 1026,-597.5 1026,-597.5 1032,-597.5 1038,-603.5 1038,-609.5 1038,-609.5 1038,-621.5 1038,-621.5 1038,-627.5 1032,-633.5 1026,-633.5"/>
<text text-anchor="middle" x="962" y="-613.6" font-family="Helvetica,sans-Serif" font-size="8.00">P1 OLTP: randrw 8K 70/30 qd=32</text>
</g>
<!-- p5 -->
<g id="node15" class="node">
<title>p5</title>
<path fill="#eeeeee" stroke="#757575" d="M1027.5,-513C1027.5,-513 896.5,-513 896.5,-513 890.5,-513 884.5,-507 884.5,-501 884.5,-501 884.5,-489 884.5,-489 884.5,-483 890.5,-477 896.5,-477 896.5,-477 1027.5,-477 1027.5,-477 1033.5,-477 1039.5,-483 1039.5,-489 1039.5,-489 1039.5,-501 1039.5,-501 1039.5,-507 1033.5,-513 1027.5,-513"/>
<text text-anchor="middle" x="962" y="-493.1" font-family="Helvetica,sans-Serif" font-size="8.00">P5 Metadata: randread 4K qd=64</text>
</g>
<!-- p1&#45;&gt;p5 -->
<!-- p6 -->
<g id="node16" class="node">
<title>p6</title>
<path fill="#eeeeee" stroke="#757575" d="M1035,-373C1035,-373 889,-373 889,-373 883,-373 877,-367 877,-361 877,-361 877,-349 877,-349 877,-343 883,-337 889,-337 889,-337 1035,-337 1035,-337 1041,-337 1047,-343 1047,-349 1047,-349 1047,-361 1047,-361 1047,-367 1041,-373 1035,-373"/>
<text text-anchor="middle" x="962" y="-353.1" font-family="Helvetica,sans-Serif" font-size="8.00">P6 fsync: randwrite 4K fsync=1 qd=1</text>
</g>
<!-- p5&#45;&gt;p6 -->
<!-- p7 -->
<g id="node17" class="node">
<title>p7</title>
<path fill="#eeeeee" stroke="#757575" d="M1036,-213C1036,-213 888,-213 888,-213 882,-213 876,-207 876,-201 876,-201 876,-189 876,-189 876,-183 882,-177 888,-177 888,-177 1036,-177 1036,-177 1042,-177 1048,-183 1048,-189 1048,-189 1048,-201 1048,-201 1048,-207 1042,-213 1036,-213"/>
<text text-anchor="middle" x="962" y="-193.1" font-family="Helvetica,sans-Serif" font-size="8.00">P7 USL: qd 1→256, точка насыщения</text>
</g>
<!-- p6&#45;&gt;p7 -->
</g>
</svg>
