<?xml version="1.0" encoding="UTF-8" standalone="no"?>
<!DOCTYPE svg PUBLIC "-//W3C//DTD SVG 1.1//EN"
 "http://www.w3.org/Graphics/SVG/1.1/DTD/svg11.dtd">
<!-- Generated by graphviz version 2.43.0 (0)
 -->
<!-- Title: WhyMethodology Pages: 1 -->
<svg width="3223pt" height="933pt"
 viewBox="0.00 0.00 773.50 224.00" xmlns="http://www.w3.org/2000/svg" xmlns:xlink="http://www.w3.org/1999/xlink">
<g id="graph0" class="graph" transform="scale(4.17 4.17) rotate(0) translate(4 220)">
<title>WhyMethodology</title>
<polygon fill="white" stroke="transparent" points="-4,4 -4,-220 769.5,-220 769.5,4 -4,4"/>
<text text-anchor="middle" x="382.75" y="-7.8" font-family="Helvetica,sans-Serif" font-size="14.00">Почему нужна методика тестирования</text>
<g id="clust1" class="cluster">
<title>cluster_scenarios</title>
<polygon fill="#16213e" stroke="black" points="186.5,-116 186.5,-208 757.5,-208 757.5,-116 186.5,-116"/>
<text text-anchor="middle" x="472" y="-192.8" font-family="Helvetica,sans-Serif" font-size="14.00" fill="white">Типы нагрузки</text>
</g>
<g id="clust2" class="cluster">
<title>cluster_requirements</title>
<polygon fill="#16213e" stroke="black" points="174.5,-31 174.5,-108 748.5,-108 748.5,-31 174.5,-31"/>
<text text-anchor="middle" x="461.5" y="-92.8" font-family="Helvetica,sans-Serif" font-size="14.00" fill="white">Что важно</text>
</g>
<!-- problem -->
<g id="node1" class="node">
<title>problem</title>
<path fill="#533483" stroke="black" d="M165,-177C165,-177 12,-177 12,-177 6,-177 0,-171 0,-165 0,-165 0,-136 0,-136 0,-130 6,-124 12,-124 12,-124 165,-124 165,-124 171,-124 177,-130 177,-136 177,-136 177,-165 177,-165 177,-171 171,-177 165,-177"/>
<text text-anchor="middle" x="88.5" y="-161.8" font-family="Times,serif" font-size="14.00" fill="white">Проблема:</text>
<text text-anchor="middle" x="88.5" y="-146.8" font-family="Times,serif" font-size="14.00" fill="white">каждый тип нагрузки</text>
<text text-anchor="middle" x="88.5" y="-131.8" font-family="Times,serif" font-size="14.00" fill="white">требует своего теста</text>
</g>
<!-- oltp -->
<g id="node2" class="node">
<title>oltp</title>
<path fill="#0f3460" stroke="black" d="M737,-177C737,-177 630,-177 630,-177 624,-177 618,-171 618,-165 618,-165 618,-136 618,-136 618,-130 624,-124 630,-124 630,-124 737,-124 737,-124 743,-124 749,-130 749,-136 749,-136 749,-165 749,-165 749,-171 743,-177 737,-177"/>
<text text-anchor="middle" x="683.5" y="-161.8" font-family="Times,serif" font-size="14.00" fill="white">База данных</text>
<text text-anchor="middle" x="683.5" y="-146.8" font-family="Times,serif" font-size="14.00" fill="white">много мелких</text>
<text text-anchor="middle" x="683.5" y="-131.8" font-family="Times,serif" font-size="14.00" fill="white">чтений/записей</text>
</g>
<!-- iops_r -->
<g id="node6" class="node">
<title>iops_r</title>
<path fill="#0f3460" stroke="black" d="M728,-77C728,-77 611,-77 611,-77 605,-77 599,-71 599,-65 599,-65 599,-51 599,-51 599,-45 605,-39 611,-39 611,-39 728,-39 728,-39 734,-39 740,-45 740,-51 740,-51 740,-65 740,-65 740,-71 734,-77 728,-77"/>
<text text-anchor="middle" x="669.5" y="-61.8" font-family="Times,serif" font-size="14.00" fill="white">IOPS</text>
<text text-anchor="middle" x="669.5" y="-46.8" font-family="Times,serif" font-size="14.00" fill="white">+ низкая latency</text>
</g>
<!-- oltp&#45;&gt;iops_r -->
<g id="edge1" class="edge">
<title>oltp&#45;&gt;iops_r</title>
<path fill="none" stroke="black" d="M679,-123.75C679,-123.75 679,-87.06 679,-87.06"/>
<polygon fill="black" stroke="black" points="682.5,-87.06 679,-77.06 675.5,-87.06 682.5,-87.06"/>
</g>
<!-- backup -->
<g id="node3" class="node">
<title>backup</title>
<path fill="#0f3460" stroke="black" d="M588,-177C588,-177 479,-177 479,-177 473,-177 467,-171 467,-165 467,-165 467,-136 467,-136 467,-130 473,-124 479,-124 479,-124 588,-124 588,-124 594,-124 600,-130 600,-136 600,-136 600,-165 600,-165 600,-171 594,-177 588,-177"/>
<text text-anchor="middle" x="533.5" y="-161.8" font-family="Times,serif" font-size="14.00" fill="white">Резервное</text>
<text text-anchor="middle" x="533.5" y="-146.8" font-family="Times,serif" font-size="14.00" fill="white">копирование</text>
<text text-anchor="middle" x="533.5" y="-131.8" font-family="Times,serif" font-size="14.00" fill="white">большие файлы</text>
</g>
<!-- throughput_r -->
<g id="node7" class="node">
<title>throughput_r</title>
<path fill="#0f3460" stroke="black" d="M569,-77C569,-77 492,-77 492,-77 486,-77 480,-71 480,-65 480,-65 480,-51 480,-51 480,-45 486,-39 492,-39 492,-39 569,-39 569,-39 575,-39 581,-45 581,-51 581,-51 581,-65 581,-65 581,-71 575,-77 569,-77"/>
<text text-anchor="middle" x="530.5" y="-61.8" font-family="Times,serif" font-size="14.00" fill="white">Throughput</text>
<text text-anchor="middle" x="530.5" y="-46.8" font-family="Times,serif" font-size="14.00" fill="white">MB/s</text>
</g>
<!-- backup&#45;&gt;throughput_r -->
<g id="edge2" class="edge">
<title>backup&#45;&gt;throughput_r</title>
<path fill="none" stroke="black" d="M530.5,-123.75C530.5,-123.75 530.5,-87.06 530.5,-87.06"/>
<polygon fill="black" stroke="black" points="534,-87.06 530.5,-77.06 527,-87.06 534,-87.06"/>
</g>
<!-- vm -->
<g id="node4" class="node">
<title>vm</title>
<path fill="#0f3460" stroke="black" d="M436.5,-177C436.5,-177 330.5,-177 330.5,-177 324.5,-177 318.5,-171 318.5,-165 318.5,-165 318.5,-136 318.5,-136 318.5,-130 324.5,-124 330.5,-124 330.5,-124 436.5,-124 436.5,-124 442.5,-124 448.5,-130 448.5,-136 448.5,-136 448.5,-165 448.5,-165 448.5,-171 442.5,-177 436.5,-177"/>
<text text-anchor="middle" x="383.5" y="-161.8" font-family="Times,serif" font-size="14.00" fill="white">Виртуализация</text>
<text text-anchor="middle" x="383.5" y="-146.8" font-family="Times,serif" font-size="14.00" fill="white">смешанная</text>
<text text-anchor="middle" x="383.5" y="-131.8" font-family="Times,serif" font-size="14.00" fill="white">нагрузка</text>
</g>
<!-- mixed_r -->
<g id="node8" class="node">
<title>mixed_r</title>
<path fill="#0f3460" stroke="black" d="M450,-77C450,-77 349,-77 349,-77 343,-77 337,-71 337,-65 337,-65 337,-51 337,-51 337,-45 343,-39 349,-39 349,-39 450,-39 450,-39 456,-39 462,-45 462,-51 462,-51 462,-65 462,-65 462,-71 456,-77 450,-77"/>
<text text-anchor="middle" x="399.5" y="-61.8" font-family="Times,serif" font-size="14.00" fill="white">Баланс</text>
<text text-anchor="middle" x="399.5" y="-46.8" font-family="Times,serif" font-size="14.00" fill="white">IOPS + latency</text>
</g>
<!-- vm&#45;&gt;mixed_r -->
<g id="edge3" class="edge">
<title>vm&#45;&gt;mixed_r</title>
<path fill="none" stroke="black" d="M392.75,-123.75C392.75,-123.75 392.75,-87.06 392.75,-87.06"/>
<polygon fill="black" stroke="black" points="396.25,-87.06 392.75,-77.06 389.25,-87.06 396.25,-87.06"/>
</g>
<!-- search -->
<g id="node5" class="node">
<title>search</title>
<path fill="#0f3460" stroke="black" d="M288.5,-177C288.5,-177 206.5,-177 206.5,-177 200.5,-177 194.5,-171 194.5,-165 194.5,-165 194.5,-136 194.5,-136 194.5,-130 200.5,-124 206.5,-124 206.5,-124 288.5,-124 288.5,-124 294.5,-124 300.5,-130 300.5,-136 300.5,-136 300.5,-165 300.5,-165 300.5,-171 294.5,-177 288.5,-177"/>
<text text-anchor="middle" x="247.5" y="-161.8" font-family="Times,serif" font-size="14.00" fill="white">Поиск</text>
<text text-anchor="middle" x="247.5" y="-146.8" font-family="Times,serif" font-size="14.00" fill="white">индексация</text>
<text text-anchor="middle" x="247.5" y="-131.8" font-family="Times,serif" font-size="14.00" fill="white">метаданные</text>
</g>
<!-- lat_r -->
<g id="node9" class="node">
<title>lat_r</title>
<path fill="#0f3460" stroke="black" d="M306.5,-77C306.5,-77 194.5,-77 194.5,-77 188.5,-77 182.5,-71 182.5,-65 182.5,-65 182.5,-51 182.5,-51 182.5,-45 188.5,-39 194.5,-39 194.5,-39 306.5,-39 306.5,-39 312.5,-39 318.5,-45 318.5,-51 318.5,-51 318.5,-65 318.5,-65 318.5,-71 312.5,-77 306.5,-77"/>
<text text-anchor="middle" x="250.5" y="-61.8" font-family="Times,serif" font-size="14.00" fill="white">Много IOPS</text>
<text text-anchor="middle" x="250.5" y="-46.8" font-family="Times,serif" font-size="14.00" fill="white">при большом qd</text>
</g>
<!-- search&#45;&gt;lat_r -->
<g id="edge4" class="edge">
<title>search&#45;&gt;lat_r</title>
<path fill="none" stroke="black" d="M247.5,-123.75C247.5,-123.75 247.5,-87.06 247.5,-87.06"/>
<polygon fill="black" stroke="black" points="251,-87.06 247.5,-77.06 244,-87.06 251,-87.06"/>
</g>
</g>
</svg>
