<?xml version="1.0" encoding="UTF-8" standalone="no"?>
<!DOCTYPE svg PUBLIC "-//W3C//DTD SVG 1.1//EN"
 "http://www.w3.org/Graphics/SVG/1.1/DTD/svg11.dtd">
<!-- Generated by graphviz version 2.43.0 (0)
 -->
<!-- Title: USL_Concept Pages: 1 -->
<svg width="2294pt" height="1279pt"
 viewBox="0.00 0.00 550.50 307.00" xmlns="http://www.w3.org/2000/svg" xmlns:xlink="http://www.w3.org/1999/xlink">
<g id="graph0" class="graph" transform="scale(4.17 4.17) rotate(0) translate(4 303)">
<title>USL_Concept</title>
<polygon fill="white" stroke="transparent" points="-4,4 -4,-303 546.5,-303 546.5,4 -4,4"/>
<text text-anchor="middle" x="271.25" y="-7.8" font-family="Helvetica,sans-Serif" font-size="14.00">USL&#45;кривые: IOPS = f(queue_depth)</text>
<!-- ideal -->
<g id="node1" class="node">
<title>ideal</title>
<path fill="#1b5e20" stroke="black" d="M159,-291.5C159,-291.5 12,-291.5 12,-291.5 6,-291.5 0,-285.5 0,-279.5 0,-279.5 0,-250.5 0,-250.5 0,-244.5 6,-238.5 12,-238.5 12,-238.5 159,-238.5 159,-238.5 165,-238.5 171,-244.5 171,-250.5 171,-250.5 171,-279.5 171,-279.5 171,-285.5 165,-291.5 159,-291.5"/>
<text text-anchor="middle" x="85.5" y="-276.3" font-family="Times,serif" font-size="14.00" fill="white">Идеал:</text>
<text text-anchor="middle" x="85.5" y="-261.3" font-family="Times,serif" font-size="14.00" fill="white">IOPS растёт линейно</text>
<text text-anchor="middle" x="85.5" y="-246.3" font-family="Times,serif" font-size="14.00" fill="white">с ростом очереди</text>
</g>
<!-- real -->
<g id="node2" class="node">
<title>real</title>
<path fill="#c62828" stroke="black" d="M356,-299C356,-299 201,-299 201,-299 195,-299 189,-293 189,-287 189,-287 189,-243 189,-243 189,-237 195,-231 201,-231 201,-231 356,-231 356,-231 362,-231 368,-237 368,-243 368,-243 368,-287 368,-287 368,-293 362,-299 356,-299"/>
<text text-anchor="middle" x="278.5" y="-283.8" font-family="Times,serif" font-size="14.00" fill="white">Реальность:</text>
<text text-anchor="middle" x="278.5" y="-268.8" font-family="Times,serif" font-size="14.00" fill="white">рост замедляется</text>
<text text-anchor="middle" x="278.5" y="-253.8" font-family="Times,serif" font-size="14.00" fill="white">выход на плато</text>
<text text-anchor="middle" x="278.5" y="-238.8" font-family="Times,serif" font-size="14.00" fill="white">возможна деградация</text>
</g>
<!-- qd_low -->
<g id="node3" class="node">
<title>qd_low</title>
<path fill="#0f3460" stroke="black" d="M530.5,-291.5C530.5,-291.5 398.5,-291.5 398.5,-291.5 392.5,-291.5 386.5,-285.5 386.5,-279.5 386.5,-279.5 386.5,-250.5 386.5,-250.5 386.5,-244.5 392.5,-238.5 398.5,-238.5 398.5,-238.5 530.5,-238.5 530.5,-238.5 536.5,-238.5 542.5,-244.5 542.5,-250.5 542.5,-250.5 542.5,-279.5 542.5,-279.5 542.5,-285.5 536.5,-291.5 530.5,-291.5"/>
<text text-anchor="middle" x="464.5" y="-276.3" font-family="Times,serif" font-size="14.00" fill="white">qd=1&#45;8</text>
<text text-anchor="middle" x="464.5" y="-261.3" font-family="Times,serif" font-size="14.00" fill="white">Недогрузка</text>
<text text-anchor="middle" x="464.5" y="-246.3" font-family="Times,serif" font-size="14.00" fill="white">диск могёт больше</text>
</g>
<!-- qd_opt -->
<g id="node4" class="node">
<title>qd_opt</title>
<path fill="#0f3460" stroke="black" d="M524,-195C524,-195 405,-195 405,-195 399,-195 393,-189 393,-183 393,-183 393,-139 393,-139 393,-133 399,-127 405,-127 405,-127 524,-127 524,-127 530,-127 536,-133 536,-139 536,-139 536,-183 536,-183 536,-189 530,-195 524,-195"/>
<text text-anchor="middle" x="464.5" y="-179.8" font-family="Times,serif" font-size="14.00" fill="white">qd=16&#45;32</text>
<text text-anchor="middle" x="464.5" y="-164.8" font-family="Times,serif" font-size="14.00" fill="white">Оптимум</text>
<text text-anchor="middle" x="464.5" y="-149.8" font-family="Times,serif" font-size="14.00" fill="white">макс IOPS</text>
<text text-anchor="middle" x="464.5" y="-134.8" font-family="Times,serif" font-size="14.00" fill="white">разумная latency</text>
</g>
<!-- qd_low&#45;&gt;qd_opt -->
<g id="edge1" class="edge">
<title>qd_low&#45;&gt;qd_opt</title>
<path fill="none" stroke="black" d="M464.5,-238.49C464.5,-238.49 464.5,-205.33 464.5,-205.33"/>
<polygon fill="black" stroke="black" points="468,-205.33 464.5,-195.33 461,-205.33 468,-205.33"/>
</g>
<!-- qd_high -->
<g id="node5" class="node">
<title>qd_high</title>
<path fill="#0f3460" stroke="black" d="M521,-91C521,-91 408,-91 408,-91 402,-91 396,-85 396,-79 396,-79 396,-35 396,-35 396,-29 402,-23 408,-23 408,-23 521,-23 521,-23 527,-23 533,-29 533,-35 533,-35 533,-79 533,-79 533,-85 527,-91 521,-91"/>
<text text-anchor="middle" x="464.5" y="-75.8" font-family="Times,serif" font-size="14.00" fill="white">qd=64&#45;256</text>
<text text-anchor="middle" x="464.5" y="-60.8" font-family="Times,serif" font-size="14.00" fill="white">Перегрузка</text>
<text text-anchor="middle" x="464.5" y="-45.8" font-family="Times,serif" font-size="14.00" fill="white">IOPS не растёт</text>
<text text-anchor="middle" x="464.5" y="-30.8" font-family="Times,serif" font-size="14.00" fill="white">latency взлетает</text>
</g>
<!-- qd_opt&#45;&gt;qd_high -->
<g id="edge2" class="edge">
<title>qd_opt&#45;&gt;qd_high</title>
<path fill="none" stroke="black" d="M464.5,-126.95C464.5,-126.95 464.5,-101.13 464.5,-101.13"/>
<polygon fill="black" stroke="black" points="468,-101.13 464.5,-91.13 461,-101.13 468,-101.13"/>
</g>
</g>
</svg>
