<?xml version="1.0" encoding="UTF-8" standalone="no"?>
<!DOCTYPE svg PUBLIC "-//W3C//DTD SVG 1.1//EN"
 "http://www.w3.org/Graphics/SVG/1.1/DTD/svg11.dtd">
<!-- Generated by graphviz version 2.43.0 (0)
 -->
<!-- Title: Mistakes Pages: 1 -->
<svg width="4550pt" height="350pt"
 viewBox="0.00 0.00 1092.00 84.00" xmlns="http://www.w3.org/2000/svg" xmlns:xlink="http://www.w3.org/1999/xlink">
<g id="graph0" class="graph" transform="scale(4.17 4.17) rotate(0) translate(4 80)">
<title>Mistakes</title>
<polygon fill="white" stroke="transparent" points="-4,4 -4,-80 1088,-80 1088,4 -4,4"/>
<text text-anchor="middle" x="542" y="-7.8" font-family="Helvetica,sans-Serif" font-size="14.00">Типовые ошибки тестирования</text>
<!-- m1 -->
<g id="node1" class="node">
<title>m1</title>
<path fill="#c62828" stroke="black" d="M154,-76C154,-76 12,-76 12,-76 6,-76 0,-70 0,-64 0,-64 0,-35 0,-35 0,-29 6,-23 12,-23 12,-23 154,-23 154,-23 160,-23 166,-29 166,-35 166,-35 166,-64 166,-64 166,-70 160,-76 154,-76"/>
<text text-anchor="middle" x="83" y="-60.8" font-family="Times,serif" font-size="14.00" fill="white">❌ Нет direct=1</text>
<text text-anchor="middle" x="83" y="-45.8" font-family="Times,serif" font-size="14.00" fill="white">тестируется кэш ОС</text>
<text text-anchor="middle" x="83" y="-30.8" font-family="Times,serif" font-size="14.00" fill="white">не диск</text>
</g>
<!-- m2 -->
<g id="node2" class="node">
<title>m2</title>
<path fill="#c62828" stroke="black" d="M336,-76C336,-76 196,-76 196,-76 190,-76 184,-70 184,-64 184,-64 184,-35 184,-35 184,-29 190,-23 196,-23 196,-23 336,-23 336,-23 342,-23 348,-29 348,-35 348,-35 348,-64 348,-64 348,-70 342,-76 336,-76"/>
<text text-anchor="middle" x="266" y="-60.8" font-family="Times,serif" font-size="14.00" fill="white">❌ Маленький файл</text>
<text text-anchor="middle" x="266" y="-45.8" font-family="Times,serif" font-size="14.00" fill="white">поместился в кэш</text>
<text text-anchor="middle" x="266" y="-30.8" font-family="Times,serif" font-size="14.00" fill="white">результат завышен</text>
</g>
<!-- m3 -->
<g id="node3" class="node">
<title>m3</title>
<path fill="#c62828" stroke="black" d="M508,-76C508,-76 378,-76 378,-76 372,-76 366,-70 366,-64 366,-64 366,-35 366,-35 366,-29 372,-23 378,-23 378,-23 508,-23 508,-23 514,-23 520,-29 520,-35 520,-35 520,-64 520,-64 520,-70 514,-76 508,-76"/>
<text text-anchor="middle" x="443" y="-60.8" font-family="Times,serif" font-size="14.00" fill="white">❌ Один прогон</text>
<text text-anchor="middle" x="443" y="-45.8" font-family="Times,serif" font-size="14.00" fill="white">нет повторов</text>
<text text-anchor="middle" x="443" y="-30.8" font-family="Times,serif" font-size="14.00" fill="white">случайный выброс</text>
</g>
<!-- m4 -->
<g id="node4" class="node">
<title>m4</title>
<path fill="#c62828" stroke="black" d="M681.5,-76C681.5,-76 550.5,-76 550.5,-76 544.5,-76 538.5,-70 538.5,-64 538.5,-64 538.5,-35 538.5,-35 538.5,-29 544.5,-23 550.5,-23 550.5,-23 681.5,-23 681.5,-23 687.5,-23 693.5,-29 693.5,-35 693.5,-35 693.5,-64 693.5,-64 693.5,-70 687.5,-76 681.5,-76"/>
<text text-anchor="middle" x="616" y="-60.8" font-family="Times,serif" font-size="14.00" fill="white">❌ Нет прогрева</text>
<text text-anchor="middle" x="616" y="-45.8" font-family="Times,serif" font-size="14.00" fill="white">первые секунды</text>
<text text-anchor="middle" x="616" y="-30.8" font-family="Times,serif" font-size="14.00" fill="white">искажают картину</text>
</g>
<!-- m5 -->
<g id="node5" class="node">
<title>m5</title>
<path fill="#c62828" stroke="black" d="M874,-76C874,-76 724,-76 724,-76 718,-76 712,-70 712,-64 712,-64 712,-35 712,-35 712,-29 718,-23 724,-23 724,-23 874,-23 874,-23 880,-23 886,-29 886,-35 886,-35 886,-64 886,-64 886,-70 880,-76 874,-76"/>
<text text-anchor="middle" x="799" y="-60.8" font-family="Times,serif" font-size="14.00" fill="white">❌ Тест на production</text>
<text text-anchor="middle" x="799" y="-45.8" font-family="Times,serif" font-size="14.00" fill="white">можно потерять</text>
<text text-anchor="middle" x="799" y="-30.8" font-family="Times,serif" font-size="14.00" fill="white">рабочие данные</text>
</g>
<!-- m6 -->
<g id="node6" class="node">
<title>m6</title>
<path fill="#c62828" stroke="black" d="M1072,-76C1072,-76 916,-76 916,-76 910,-76 904,-70 904,-64 904,-64 904,-35 904,-35 904,-29 910,-23 916,-23 916,-23 1072,-23 1072,-23 1078,-23 1084,-29 1084,-35 1084,-35 1084,-64 1084,-64 1084,-70 1078,-76 1072,-76"/>
<text text-anchor="middle" x="994" y="-60.8" font-family="Times,serif" font-size="14.00" fill="white">❌ Сравнение по IOPS</text>
<text text-anchor="middle" x="994" y="-45.8" font-family="Times,serif" font-size="14.00" fill="white">без учёта latency</text>
<text text-anchor="middle" x="994" y="-30.8" font-family="Times,serif" font-size="14.00" fill="white">и типа нагрузки</text>
</g>
</g>
</svg>
