<?xml version="1.0" encoding="UTF-8" standalone="no"?>
<!DOCTYPE svg PUBLIC "-//W3C//DTD SVG 1.1//EN"
 "http://www.w3.org/Graphics/SVG/1.1/DTD/svg11.dtd">
<!-- Generated by graphviz version 2.43.0 (0)
 -->
<!-- Title: Infrastructure Pages: 1 -->
<svg width="5329pt" height="1912pt"
 viewBox="0.00 0.00 1279.00 459.00" xmlns="http://www.w3.org/2000/svg" xmlns:xlink="http://www.w3.org/1999/xlink">
<g id="graph0" class="graph" transform="scale(4.17 4.17) rotate(0) translate(4 455)">
<title>Infrastructure</title>
<polygon fill="white" stroke="transparent" points="-4,4 -4,-455 1275,-455 1275,4 -4,4"/>
<text text-anchor="middle" x="635.5" y="-9.2" font-family="Helvetica,sans-Serif" font-size="16.00">Архитектура тестового стенда</text>
<g id="clust1" class="cluster">
<title>cluster_vapak</title>
<polygon fill="#16213e" stroke="black" points="8,-34 8,-278.88 370,-278.88 370,-34 8,-34"/>
<text text-anchor="middle" x="189" y="-262.07" font-family="Helvetica,sans-Serif" font-size="16.00" fill="white">ПАК ВАПАК</text>
<text text-anchor="middle" x="189" y="-244.07" font-family="Helvetica,sans-Serif" font-size="16.00" fill="white">DRBD 9.2 + raw SSD</text>
</g>
<g id="clust2" class="cluster">
<title>cluster_micropak</title>
<polygon fill="#16213e" stroke="black" points="396,-34 396,-278.88 758,-278.88 758,-34 396,-34"/>
<text text-anchor="middle" x="577" y="-262.07" font-family="Helvetica,sans-Serif" font-size="16.00" fill="white">ПАК МикроПАК</text>
<text text-anchor="middle" x="577" y="-244.07" font-family="Helvetica,sans-Serif" font-size="16.00" fill="white">DRBD 8.4</text>
</g>
<g id="clust3" class="cluster">
<title>cluster_tssd</title>
<polygon fill="#16213e" stroke="black" points="825,-34 825,-443 1263,-443 1263,-34 825,-34"/>
<text text-anchor="middle" x="1044" y="-426.2" font-family="Helvetica,sans-Serif" font-size="16.00" fill="white">ЦКС TSSD</text>
<text text-anchor="middle" x="1044" y="-408.2" font-family="Helvetica,sans-Serif" font-size="16.00" fill="white">Ceph RBD + HP P2000</text>
</g>
<!-- vapak1 -->
<g id="node1" class="node">
<title>vapak1</title>
<path fill="#0f3460" stroke="black" d="M349.5,-226.88C349.5,-226.88 222.5,-226.88 222.5,-226.88 216.5,-226.88 210.5,-220.88 210.5,-214.88 210.5,-214.88 210.5,-185.88 210.5,-185.88 210.5,-179.88 216.5,-173.88 222.5,-173.88 222.5,-173.88 349.5,-173.88 349.5,-173.88 355.5,-173.88 361.5,-179.88 361.5,-185.88 361.5,-185.88 361.5,-214.88 361.5,-214.88 361.5,-220.88 355.5,-226.88 349.5,-226.88"/>
<text text-anchor="middle" x="286" y="-211.68" font-family="Times,serif" font-size="14.00" fill="white">hv&#45;01</text>
<text text-anchor="middle" x="286" y="-196.68" font-family="Times,serif" font-size="14.00" fill="white">172.30.20.151</text>
<text text-anchor="middle" x="286" y="-181.68" font-family="Times,serif" font-size="14.00" fill="white">18C · 376 GB RAM</text>
</g>
<!-- drbd92 -->
<g id="node3" class="node">
<title>drbd92</title>
<path fill="#533483" stroke="black" d="M186.5,-108.2C186.5,-111.85 167,-114.81 143,-114.81 119,-114.81 99.5,-111.85 99.5,-108.2 99.5,-108.2 99.5,-48.68 99.5,-48.68 99.5,-45.03 119,-42.06 143,-42.06 167,-42.06 186.5,-45.03 186.5,-48.68 186.5,-48.68 186.5,-108.2 186.5,-108.2"/>
<path fill="none" stroke="black" d="M186.5,-108.2C186.5,-104.55 167,-101.59 143,-101.59 119,-101.59 99.5,-104.55 99.5,-108.2"/>
<text text-anchor="middle" x="143" y="-89.74" font-family="Times,serif" font-size="14.00" fill="white">DRBD 9.2</text>
<text text-anchor="middle" x="143" y="-74.74" font-family="Times,serif" font-size="14.00" fill="white">1.8TB</text>
<text text-anchor="middle" x="143" y="-59.74" font-family="Times,serif" font-size="14.00" fill="white">thin pool</text>
</g>
<!-- vapak1&#45;&gt;drbd92 -->
<g id="edge1" class="edge">
<title>vapak1&#45;&gt;drbd92</title>
<path fill="none" stroke="black" d="M228.75,-173.45C228.75,-146.5 228.75,-109 228.75,-109 228.75,-109 196.63,-109 196.63,-109"/>
<polygon fill="black" stroke="black" points="196.63,-105.5 186.63,-109 196.63,-112.5 196.63,-105.5"/>
</g>
<!-- ssd -->
<g id="node4" class="node">
<title>ssd</title>
<path fill="#533483" stroke="black" d="M325,-99.92C325,-102.55 307.52,-104.69 286,-104.69 264.48,-104.69 247,-102.55 247,-99.92 247,-99.92 247,-56.96 247,-56.96 247,-54.33 264.48,-52.19 286,-52.19 307.52,-52.19 325,-54.33 325,-56.96 325,-56.96 325,-99.92 325,-99.92"/>
<path fill="none" stroke="black" d="M325,-99.92C325,-97.28 307.52,-95.14 286,-95.14 264.48,-95.14 247,-97.28 247,-99.92"/>
<text text-anchor="middle" x="286" y="-82.24" font-family="Times,serif" font-size="14.00" fill="white">raw SSD</text>
<text text-anchor="middle" x="286" y="-67.24" font-family="Times,serif" font-size="14.00" fill="white">sdc 1.8T</text>
</g>
<!-- vapak1&#45;&gt;ssd -->
<g id="edge3" class="edge">
<title>vapak1&#45;&gt;ssd</title>
<path fill="none" stroke="black" d="M286,-173.62C286,-173.62 286,-114.72 286,-114.72"/>
<polygon fill="black" stroke="black" points="289.5,-114.72 286,-104.72 282.5,-114.72 289.5,-114.72"/>
</g>
<!-- vapak2 -->
<g id="node2" class="node">
<title>vapak2</title>
<path fill="#0f3460" stroke="black" d="M155.5,-226.88C155.5,-226.88 28.5,-226.88 28.5,-226.88 22.5,-226.88 16.5,-220.88 16.5,-214.88 16.5,-214.88 16.5,-185.88 16.5,-185.88 16.5,-179.88 22.5,-173.88 28.5,-173.88 28.5,-173.88 155.5,-173.88 155.5,-173.88 161.5,-173.88 167.5,-179.88 167.5,-185.88 167.5,-185.88 167.5,-214.88 167.5,-214.88 167.5,-220.88 161.5,-226.88 155.5,-226.88"/>
<text text-anchor="middle" x="92" y="-211.68" font-family="Times,serif" font-size="14.00" fill="white">hv&#45;02</text>
<text text-anchor="middle" x="92" y="-196.68" font-family="Times,serif" font-size="14.00" fill="white">172.30.20.152</text>
<text text-anchor="middle" x="92" y="-181.68" font-family="Times,serif" font-size="14.00" fill="white">20C · 376 GB RAM</text>
</g>
<!-- vapak2&#45;&gt;drbd92 -->
<g id="edge2" class="edge">
<title>vapak2&#45;&gt;drbd92</title>
<path fill="none" stroke="black" d="M133.5,-173.62C133.5,-173.62 133.5,-124.85 133.5,-124.85"/>
<polygon fill="black" stroke="black" points="137,-124.85 133.5,-114.85 130,-124.85 137,-124.85"/>
</g>
<!-- mic1 -->
<g id="node5" class="node">
<title>mic1</title>
<path fill="#0f3460" stroke="black" d="M737.5,-226.88C737.5,-226.88 610.5,-226.88 610.5,-226.88 604.5,-226.88 598.5,-220.88 598.5,-214.88 598.5,-214.88 598.5,-185.88 598.5,-185.88 598.5,-179.88 604.5,-173.88 610.5,-173.88 610.5,-173.88 737.5,-173.88 737.5,-173.88 743.5,-173.88 749.5,-179.88 749.5,-185.88 749.5,-185.88 749.5,-214.88 749.5,-214.88 749.5,-220.88 743.5,-226.88 737.5,-226.88"/>
<text text-anchor="middle" x="674" y="-211.68" font-family="Times,serif" font-size="14.00" fill="white">hv&#45;01</text>
<text text-anchor="middle" x="674" y="-196.68" font-family="Times,serif" font-size="14.00" fill="white">172.30.20.51</text>
<text text-anchor="middle" x="674" y="-181.68" font-family="Times,serif" font-size="14.00" fill="white">18C · 376 GB RAM</text>
</g>
<!-- drbd84 -->
<g id="node7" class="node">
<title>drbd84</title>
<path fill="#533483" stroke="black" d="M626,-108.2C626,-111.85 604.04,-114.81 577,-114.81 549.96,-114.81 528,-111.85 528,-108.2 528,-108.2 528,-48.68 528,-48.68 528,-45.03 549.96,-42.06 577,-42.06 604.04,-42.06 626,-45.03 626,-48.68 626,-48.68 626,-108.2 626,-108.2"/>
<path fill="none" stroke="black" d="M626,-108.2C626,-104.55 604.04,-101.59 577,-101.59 549.96,-101.59 528,-104.55 528,-108.2"/>
<text text-anchor="middle" x="577" y="-89.74" font-family="Times,serif" font-size="14.00" fill="white">DRBD 8.4</text>
<text text-anchor="middle" x="577" y="-74.74" font-family="Times,serif" font-size="14.00" fill="white">3.5TB</text>
<text text-anchor="middle" x="577" y="-59.74" font-family="Times,serif" font-size="14.00" fill="white">толстый LV</text>
</g>
<!-- mic1&#45;&gt;drbd84 -->
<g id="edge4" class="edge">
<title>mic1&#45;&gt;drbd84</title>
<path fill="none" stroke="black" d="M612.25,-173.62C612.25,-173.62 612.25,-123.93 612.25,-123.93"/>
<polygon fill="black" stroke="black" points="615.75,-123.93 612.25,-113.93 608.75,-123.93 615.75,-123.93"/>
</g>
<!-- mic2 -->
<g id="node6" class="node">
<title>mic2</title>
<path fill="#0f3460" stroke="black" d="M543.5,-226.88C543.5,-226.88 416.5,-226.88 416.5,-226.88 410.5,-226.88 404.5,-220.88 404.5,-214.88 404.5,-214.88 404.5,-185.88 404.5,-185.88 404.5,-179.88 410.5,-173.88 416.5,-173.88 416.5,-173.88 543.5,-173.88 543.5,-173.88 549.5,-173.88 555.5,-179.88 555.5,-185.88 555.5,-185.88 555.5,-214.88 555.5,-214.88 555.5,-220.88 549.5,-226.88 543.5,-226.88"/>
<text text-anchor="middle" x="480" y="-211.68" font-family="Times,serif" font-size="14.00" fill="white">hv&#45;02</text>
<text text-anchor="middle" x="480" y="-196.68" font-family="Times,serif" font-size="14.00" fill="white">172.30.20.52</text>
<text text-anchor="middle" x="480" y="-181.68" font-family="Times,serif" font-size="14.00" fill="white">20C · 376 GB RAM</text>
</g>
<!-- mic2&#45;&gt;drbd84 -->
<g id="edge5" class="edge">
<title>mic2&#45;&gt;drbd84</title>
<path fill="none" stroke="black" d="M541.75,-173.62C541.75,-173.62 541.75,-123.93 541.75,-123.93"/>
<polygon fill="black" stroke="black" points="545.25,-123.93 541.75,-113.93 538.25,-123.93 545.25,-123.93"/>
</g>
<!-- tssd1 -->
<g id="node8" class="node">
<title>tssd1</title>
<path fill="#0f3460" stroke="black" d="M933,-226.88C933,-226.88 845,-226.88 845,-226.88 839,-226.88 833,-220.88 833,-214.88 833,-214.88 833,-185.88 833,-185.88 833,-179.88 839,-173.88 845,-173.88 845,-173.88 933,-173.88 933,-173.88 939,-173.88 945,-179.88 945,-185.88 945,-185.88 945,-214.88 945,-214.88 945,-220.88 939,-226.88 933,-226.88"/>
<text text-anchor="middle" x="889" y="-211.68" font-family="Times,serif" font-size="14.00" fill="white">tssd&#45;n01</text>
<text text-anchor="middle" x="889" y="-196.68" font-family="Times,serif" font-size="14.00" fill="white">10.129.11.21</text>
<text text-anchor="middle" x="889" y="-181.68" font-family="Times,serif" font-size="14.00" fill="white">64C · 251 GB</text>
</g>
<!-- ceph -->
<g id="node11" class="node">
<title>ceph</title>
<path fill="#533483" stroke="black" d="M1095.5,-108.2C1095.5,-111.85 1072.42,-114.81 1044,-114.81 1015.58,-114.81 992.5,-111.85 992.5,-108.2 992.5,-108.2 992.5,-48.68 992.5,-48.68 992.5,-45.03 1015.58,-42.06 1044,-42.06 1072.42,-42.06 1095.5,-45.03 1095.5,-48.68 1095.5,-48.68 1095.5,-108.2 1095.5,-108.2"/>
<path fill="none" stroke="black" d="M1095.5,-108.2C1095.5,-104.55 1072.42,-101.59 1044,-101.59 1015.58,-101.59 992.5,-104.55 992.5,-108.2"/>
<text text-anchor="middle" x="1044" y="-89.74" font-family="Times,serif" font-size="14.00" fill="white">Ceph RBD</text>
<text text-anchor="middle" x="1044" y="-74.74" font-family="Times,serif" font-size="14.00" fill="white">7×7TB OSD</text>
<text text-anchor="middle" x="1044" y="-59.74" font-family="Times,serif" font-size="14.00" fill="white">пул &#39;one&#39;</text>
</g>
<!-- tssd1&#45;&gt;ceph -->
<g id="edge6" class="edge">
<title>tssd1&#45;&gt;ceph</title>
<path fill="none" stroke="black" d="M889,-173.82C889,-137.83 889,-78 889,-78 889,-78 982.39,-78 982.39,-78"/>
<polygon fill="black" stroke="black" points="982.39,-81.5 992.39,-78 982.39,-74.5 982.39,-81.5"/>
</g>
<!-- tssd2 -->
<g id="node9" class="node">
<title>tssd2</title>
<path fill="#0f3460" stroke="black" d="M1243,-226.88C1243,-226.88 1155,-226.88 1155,-226.88 1149,-226.88 1143,-220.88 1143,-214.88 1143,-214.88 1143,-185.88 1143,-185.88 1143,-179.88 1149,-173.88 1155,-173.88 1155,-173.88 1243,-173.88 1243,-173.88 1249,-173.88 1255,-179.88 1255,-185.88 1255,-185.88 1255,-214.88 1255,-214.88 1255,-220.88 1249,-226.88 1243,-226.88"/>
<text text-anchor="middle" x="1199" y="-211.68" font-family="Times,serif" font-size="14.00" fill="white">tssd&#45;n02</text>
<text text-anchor="middle" x="1199" y="-196.68" font-family="Times,serif" font-size="14.00" fill="white">10.129.11.22</text>
<text text-anchor="middle" x="1199" y="-181.68" font-family="Times,serif" font-size="14.00" fill="white">64C · 251 GB</text>
</g>
<!-- tssd2&#45;&gt;ceph -->
<g id="edge7" class="edge">
<title>tssd2&#45;&gt;ceph</title>
<path fill="none" stroke="black" d="M1199,-173.82C1199,-137.83 1199,-78 1199,-78 1199,-78 1105.61,-78 1105.61,-78"/>
<polygon fill="black" stroke="black" points="1105.61,-74.5 1095.61,-78 1105.61,-81.5 1105.61,-74.5"/>
</g>
<!-- tssd3 -->
<g id="node10" class="node">
<title>tssd3</title>
<path fill="#0f3460" stroke="black" d="M1088,-226.88C1088,-226.88 1000,-226.88 1000,-226.88 994,-226.88 988,-220.88 988,-214.88 988,-214.88 988,-185.88 988,-185.88 988,-179.88 994,-173.88 1000,-173.88 1000,-173.88 1088,-173.88 1088,-173.88 1094,-173.88 1100,-179.88 1100,-185.88 1100,-185.88 1100,-214.88 1100,-214.88 1100,-220.88 1094,-226.88 1088,-226.88"/>
<text text-anchor="middle" x="1044" y="-211.68" font-family="Times,serif" font-size="14.00" fill="white">tssd&#45;n03</text>
<text text-anchor="middle" x="1044" y="-196.68" font-family="Times,serif" font-size="14.00" fill="white">10.129.11.23</text>
<text text-anchor="middle" x="1044" y="-181.68" font-family="Times,serif" font-size="14.00" fill="white">64C · 251 GB</text>
</g>
<!-- tssd3&#45;&gt;ceph -->
<g id="edge8" class="edge">
<title>tssd3&#45;&gt;ceph</title>
<path fill="none" stroke="black" d="M1044,-173.62C1044,-173.62 1044,-124.85 1044,-124.85"/>
<polygon fill="black" stroke="black" points="1047.5,-124.85 1044,-114.85 1040.5,-124.85 1047.5,-124.85"/>
</g>
<!-- hp -->
<g id="node12" class="node">
<title>hp</title>
<path fill="#533483" stroke="black" d="M991,-386.35C991,-388.99 960.07,-391.13 922,-391.13 883.93,-391.13 853,-388.99 853,-386.35 853,-386.35 853,-343.4 853,-343.4 853,-340.76 883.93,-338.62 922,-338.62 960.07,-338.62 991,-340.76 991,-343.4 991,-343.4 991,-386.35 991,-386.35"/>
<path fill="none" stroke="black" d="M991,-386.35C991,-383.72 960.07,-381.58 922,-381.58 883.93,-381.58 853,-383.72 853,-386.35"/>
<text text-anchor="middle" x="922" y="-368.68" font-family="Times,serif" font-size="14.00" fill="white">HP P2000 G3 FC</text>
<text text-anchor="middle" x="922" y="-353.68" font-family="Times,serif" font-size="14.00" fill="white">1.4T LUN</text>
</g>
<!-- hp&#45;&gt;tssd1 -->
<g id="edge9" class="edge">
<title>hp&#45;&gt;tssd1</title>
<path fill="none" stroke="#000000" stroke-dasharray="5,2" d="M899,-338.45C899,-338.45 899,-237.01 899,-237.01"/>
<polygon fill="#000000" stroke="#000000" points="902.5,-237.01 899,-227.01 895.5,-237.01 902.5,-237.01"/>
</g>
<!-- vps -->
<g id="node13" class="node">
<title>vps</title>
<path fill="#e94560" stroke="black" d="M711.5,-398.88C711.5,-398.88 596.5,-398.88 596.5,-398.88 590.5,-398.88 584.5,-392.88 584.5,-386.88 584.5,-386.88 584.5,-342.88 584.5,-342.88 584.5,-336.88 590.5,-330.88 596.5,-330.88 596.5,-330.88 711.5,-330.88 711.5,-330.88 717.5,-330.88 723.5,-336.88 723.5,-342.88 723.5,-342.88 723.5,-386.88 723.5,-386.88 723.5,-392.88 717.5,-398.88 711.5,-398.88"/>
<text text-anchor="middle" x="654" y="-383.68" font-family="Times,serif" font-size="14.00" fill="white">VPS</text>
<text text-anchor="middle" x="654" y="-368.68" font-family="Times,serif" font-size="14.00" fill="white">170.168.91.95</text>
<text text-anchor="middle" x="654" y="-353.68" font-family="Times,serif" font-size="14.00" fill="white">Hermes Agent</text>
<text text-anchor="middle" x="654" y="-338.68" font-family="Times,serif" font-size="14.00" fill="white">DeepSeek v4 Pro</text>
</g>
<!-- vps&#45;&gt;vapak1 -->
<g id="edge11" class="edge">
<title>vps&#45;&gt;vapak1</title>
<path fill="none" stroke="#00ff88" d="M584.35,-364C477.66,-364 286,-364 286,-364 286,-364 286,-237.03 286,-237.03"/>
<polygon fill="#00ff88" stroke="#00ff88" points="289.5,-237.03 286,-227.03 282.5,-237.03 289.5,-237.03"/>
<text text-anchor="middle" x="446" y="-290.68" font-family="Times,serif" font-size="14.00">HuaweiHP VPN</text>
</g>
<!-- vps&#45;&gt;mic1 -->
<g id="edge10" class="edge">
<title>vps&#45;&gt;mic1</title>
<path fill="none" stroke="#00ff88" d="M661,-330.79C661,-330.79 661,-237.1 661,-237.1"/>
<polygon fill="#00ff88" stroke="#00ff88" points="664.5,-237.1 661,-227.1 657.5,-237.1 664.5,-237.1"/>
<text text-anchor="middle" x="710" y="-290.68" font-family="Times,serif" font-size="14.00">HuaweiHP VPN</text>
</g>
<!-- vps&#45;&gt;tssd1 -->
<g id="edge12" class="edge">
<title>vps&#45;&gt;tssd1</title>
<path fill="none" stroke="#00ff88" d="M723.57,-334C777.46,-334 843,-334 843,-334 843,-334 843,-237.09 843,-237.09"/>
<polygon fill="#00ff88" stroke="#00ff88" points="846.5,-237.09 843,-227.09 839.5,-237.09 846.5,-237.09"/>
<text text-anchor="middle" x="865" y="-290.68" font-family="Times,serif" font-size="14.00">Cisco815 VPN</text>
</g>
</g>
</svg>
