<?xml version="1.0" encoding="UTF-8" standalone="no"?>
<!DOCTYPE svg PUBLIC "-//W3C//DTD SVG 1.1//EN"
 "http://www.w3.org/Graphics/SVG/1.1/DTD/svg11.dtd">
<!-- Generated by graphviz version 2.43.0 (0)
 -->
<!-- Title: ReadingResults Pages: 1 -->
<svg width="3710pt" height="350pt"
 viewBox="0.00 0.00 890.50 84.00" xmlns="http://www.w3.org/2000/svg" xmlns:xlink="http://www.w3.org/1999/xlink">
<g id="graph0" class="graph" transform="scale(4.17 4.17) rotate(0) translate(4 80)">
<title>ReadingResults</title>
<polygon fill="white" stroke="transparent" points="-4,4 -4,-80 886.5,-80 886.5,4 -4,4"/>
<text text-anchor="middle" x="441.25" y="-7.8" font-family="Helvetica,sans-Serif" font-size="14.00">Как читать результаты</text>
<!-- iops_n -->
<g id="node1" class="node">
<title>iops_n</title>
<path fill="#0f3460" stroke="black" d="M188,-68.5C188,-68.5 12,-68.5 12,-68.5 6,-68.5 0,-62.5 0,-56.5 0,-56.5 0,-42.5 0,-42.5 0,-36.5 6,-30.5 12,-30.5 12,-30.5 188,-30.5 188,-30.5 194,-30.5 200,-36.5 200,-42.5 200,-42.5 200,-56.5 200,-56.5 200,-62.5 194,-68.5 188,-68.5"/>
<text text-anchor="middle" x="100" y="-53.3" font-family="Times,serif" font-size="14.00" fill="white">Высокий IOPS — хорошо</text>
<text text-anchor="middle" x="100" y="-38.3" font-family="Times,serif" font-size="14.00" fill="white">но не всегда достаточно</text>
</g>
<!-- lat_n -->
<g id="node2" class="node">
<title>lat_n</title>
<path fill="#0f3460" stroke="black" d="M363.5,-68.5C363.5,-68.5 230.5,-68.5 230.5,-68.5 224.5,-68.5 218.5,-62.5 218.5,-56.5 218.5,-56.5 218.5,-42.5 218.5,-42.5 218.5,-36.5 224.5,-30.5 230.5,-30.5 230.5,-30.5 363.5,-30.5 363.5,-30.5 369.5,-30.5 375.5,-36.5 375.5,-42.5 375.5,-42.5 375.5,-56.5 375.5,-56.5 375.5,-62.5 369.5,-68.5 363.5,-68.5"/>
<text text-anchor="middle" x="297" y="-53.3" font-family="Times,serif" font-size="14.00" fill="white">Низкая latency</text>
<text text-anchor="middle" x="297" y="-38.3" font-family="Times,serif" font-size="14.00" fill="white">часто важнее IOPS</text>
</g>
<!-- throughput_n -->
<g id="node3" class="node">
<title>throughput_n</title>
<path fill="#0f3460" stroke="black" d="M538.5,-68.5C538.5,-68.5 405.5,-68.5 405.5,-68.5 399.5,-68.5 393.5,-62.5 393.5,-56.5 393.5,-56.5 393.5,-42.5 393.5,-42.5 393.5,-36.5 399.5,-30.5 405.5,-30.5 405.5,-30.5 538.5,-30.5 538.5,-30.5 544.5,-30.5 550.5,-36.5 550.5,-42.5 550.5,-42.5 550.5,-56.5 550.5,-56.5 550.5,-62.5 544.5,-68.5 538.5,-68.5"/>
<text text-anchor="middle" x="472" y="-53.3" font-family="Times,serif" font-size="14.00" fill="white">Для бэкапов</text>
<text text-anchor="middle" x="472" y="-38.3" font-family="Times,serif" font-size="14.00" fill="white">важнее throughput</text>
</g>
<!-- fsync_n -->
<g id="node4" class="node">
<title>fsync_n</title>
<path fill="#0f3460" stroke="black" d="M689.5,-68.5C689.5,-68.5 580.5,-68.5 580.5,-68.5 574.5,-68.5 568.5,-62.5 568.5,-56.5 568.5,-56.5 568.5,-42.5 568.5,-42.5 568.5,-36.5 574.5,-30.5 580.5,-30.5 580.5,-30.5 689.5,-30.5 689.5,-30.5 695.5,-30.5 701.5,-36.5 701.5,-42.5 701.5,-42.5 701.5,-56.5 701.5,-56.5 701.5,-62.5 695.5,-68.5 689.5,-68.5"/>
<text text-anchor="middle" x="635" y="-53.3" font-family="Times,serif" font-size="14.00" fill="white">Для баз данных</text>
<text text-anchor="middle" x="635" y="-38.3" font-family="Times,serif" font-size="14.00" fill="white">критичен fsync</text>
</g>
<!-- scale_n -->
<g id="node5" class="node">
<title>scale_n</title>
<path fill="#0f3460" stroke="black" d="M870.5,-76C870.5,-76 731.5,-76 731.5,-76 725.5,-76 719.5,-70 719.5,-64 719.5,-64 719.5,-35 719.5,-35 719.5,-29 725.5,-23 731.5,-23 731.5,-23 870.5,-23 870.5,-23 876.5,-23 882.5,-29 882.5,-35 882.5,-35 882.5,-64 882.5,-64 882.5,-70 876.5,-76 870.5,-76"/>
<text text-anchor="middle" x="801" y="-60.8" font-family="Times,serif" font-size="14.00" fill="white">Для облака важны:</text>
<text text-anchor="middle" x="801" y="-45.8" font-family="Times,serif" font-size="14.00" fill="white">масштабируемость</text>
<text text-anchor="middle" x="801" y="-30.8" font-family="Times,serif" font-size="14.00" fill="white">отказоустойчивость</text>
</g>
</g>
</svg>
